<?xml version="1.0" encoding="utf-8"?>
<!-- Generator: Adobe Illustrator 16.0.0, SVG Export Plug-In . SVG Version: 6.00 Build 0)  -->
<!DOCTYPE svg PUBLIC "-//W3C//DTD SVG 1.1//EN" "http://www.w3.org/Graphics/SVG/1.1/DTD/svg11.dtd">
<svg version="1.1" id="图层_1" xmlns="http://www.w3.org/2000/svg" xmlns:xlink="http://www.w3.org/1999/xlink" x="0px" y="0px"
	 width="495px" height="400px" viewBox="32.5 0 495 400" enable-background="new 32.5 0 495 400" xml:space="preserve">
<desc>Created with Highcharts 6.1.0</desc>
<rect x="47.5" fill="#FFFFFF" width="485" height="400"/>
<rect x="10" y="63" fill="none" width="580" height="322"/>
<rect x="94.5" y="63" fill="none" width="411" height="322"/>
<g>
	<g transform="translate(10,63) scale(1 1)">
		<path fill="#7CB5EC" stroke="#FFFFFF" stroke-linejoin="round" d="M289.979,59c55.212-0.011,101.367,41.988,106.549,96.957
			l-77.356,7.293c-1.419-15.053-14.058-26.553-29.177-26.55L289.979,59z"/>
		<path fill="#434348" stroke="#FFFFFF" stroke-linejoin="round" d="M405.001,155.273c5.924,63.514-40.762,119.804-104.275,125.728
			c-1.617,0.151-3.238,0.268-4.861,0.351l-4.377-86.09c16.161-0.821,28.597-14.588,27.774-30.75
			c-0.021-0.411-0.05-0.822-0.088-1.232L405.001,155.273z"/>
		<path fill="#90ED7D" stroke="#FFFFFF" stroke-linejoin="round" d="M295.849,283.354c-36.348,1.812-71.484-13.322-95.14-40.979
			l67.025-57.331c5.899,6.896,14.661,10.67,23.724,10.219L295.849,283.354z"/>
		<path fill="#F7A35C" stroke="#FFFFFF" stroke-linejoin="round" d="M197.59,244.883c-6.055-7.092-11.272-14.857-15.55-23.145
			l81.925-42.297c1.032,1.998,2.29,3.871,3.75,5.582L197.59,244.883z"/>
		<path fill="#8085E9" stroke="#FFFFFF" stroke-linejoin="round" d="M166.426,229.644c-18.976-36.845-20.521-80.235-4.213-118.336
			l100.851,43.164c-3.438,8.031-3.112,17.178,0.888,24.945L166.426,229.644z"/>
		<path fill="#F15C80" stroke="#FFFFFF" stroke-linejoin="round" d="M159.51,109.996c2.241-5.221,4.793-10.303,7.643-15.218
			l97.499,56.527c-0.588,1.014-1.114,2.063-1.577,3.14L159.51,109.996z"/>
		<path fill="#E4D354" stroke="#FFFFFF" stroke-linejoin="round" d="M163.333,92.394C189.52,47.33,237.677,19.572,289.797,19.5
			l0.162,117.2c-10.424,0.014-20.055,5.565-25.292,14.579L163.333,92.394z"/>
	</g>
	<g transform="translate(10,63) scale(1 1)">
	</g>
</g>
<text transform="matrix(1 0 0 1 211.5 39)" fill="#333333" font-family="'MicrosoftYaHei'" font-size="18">路基一标拌合站2</text>
<g transform="translate(10,63) scale(1 1)">
	<path fill="none" stroke="#7CB5EC" d="M387.288,64.248c-5,0-17.126,13.303-21.167,17.738l-4.042,4.434"/>
	<path fill="none" stroke="#434348" d="M404.96,260.785c-5,0-18.604-11.789-23.138-15.718l-4.535-3.929"/>
	<path fill="none" stroke="#90ED7D" d="M226.596,300.944c5,0,12.127-16.528,14.503-22.038l2.376-5.51"/>
	<path fill="none" stroke="#F7A35C" d="M159.199,249.918c5,0,19.947-10.029,24.929-13.373l4.982-3.344"/>
	<path fill="none" stroke="#8085E9" d="M116.104,171.408c5,0,22.989-0.629,28.985-0.84l5.996-0.209"/>
	<path fill="none" stroke="#F15C80" d="M131.349,88.199c5,0,21.08,8.089,26.44,10.786l5.36,2.696"/>
	<path fill="none" stroke="#E4D354" d="M196.971,12.519c5,0,13.977,15.602,16.97,20.802l2.993,5.2"/>
	<g transform="translate(392,54)">
		<text transform="matrix(1 0 0 1 5 16)" fill="#FFFFFF" font-family="'AdobeSongStd-Light-GBpc-EUC-H'" font-size="11">西班牙</text>
		
			<text transform="matrix(1 0 0 1 5 16)" fill="none" stroke="#FFFFFF" stroke-width="2" stroke-linejoin="round" font-family="'AdobeSongStd-Light-GBpc-EUC-H'" font-size="11">西班牙</text>
		<text transform="matrix(1 0 0 1 5 16)" font-family="'AdobeSongStd-Light-GBpc-EUC-H'" font-size="11">西班牙</text>
	</g>
	<g transform="translate(410,251)">
		<text transform="matrix(1 0 0 1 5 16)" fill="#FFFFFF" font-family="'AdobeSongStd-Light-GBpc-EUC-H'" font-size="11">法国</text>
		
			<text transform="matrix(1 0 0 1 5 16)" fill="none" stroke="#FFFFFF" stroke-width="2" stroke-linejoin="round" font-family="'AdobeSongStd-Light-GBpc-EUC-H'" font-size="11">法国</text>
		<text transform="matrix(1 0 0 1 5 16)" font-family="'AdobeSongStd-Light-GBpc-EUC-H'" font-size="11">法国</text>
	</g>
	<g transform="translate(186,291)">
		<text transform="matrix(1 0 0 1 5 16)" fill="#FFFFFF" font-family="'AdobeSongStd-Light-GBpc-EUC-H'" font-size="11">波兰</text>
		
			<text transform="matrix(1 0 0 1 5 16)" fill="none" stroke="#FFFFFF" stroke-width="2" stroke-linejoin="round" font-family="'AdobeSongStd-Light-GBpc-EUC-H'" font-size="11">波兰</text>
		<text transform="matrix(1 0 0 1 5 16)" font-family="'AdobeSongStd-Light-GBpc-EUC-H'" font-size="11">波兰</text>
	</g>
	<g transform="translate(79,240)">
		<text transform="matrix(1 0 0 1 5 16)" fill="#FFFFFF" font-family="'AdobeSongStd-Light-GBpc-EUC-H'" font-size="11">捷克共和国</text>
		
			<text transform="matrix(1 0 0 1 5 16)" fill="none" stroke="#FFFFFF" stroke-width="2" stroke-linejoin="round" font-family="'AdobeSongStd-Light-GBpc-EUC-H'" font-size="11">捷克共和国</text>
		<text transform="matrix(1 0 0 1 5 16)" font-family="'AdobeSongStd-Light-GBpc-EUC-H'" font-size="11">捷克共和国</text>
	</g>
	<g transform="translate(62,161)">
		<text transform="matrix(1 0 0 1 5 16)" fill="#FFFFFF" font-family="'AdobeSongStd-Light-GBpc-EUC-H'" font-size="11">意大利</text>
		
			<text transform="matrix(1 0 0 1 5 16)" fill="none" stroke="#FFFFFF" stroke-width="2" stroke-linejoin="round" font-family="'AdobeSongStd-Light-GBpc-EUC-H'" font-size="11">意大利</text>
		<text transform="matrix(1 0 0 1 5 16)" font-family="'AdobeSongStd-Light-GBpc-EUC-H'" font-size="11">意大利</text>
	</g>
	<g transform="translate(90,78)">
		<text transform="matrix(1 0 0 1 5 16)" fill="#FFFFFF" font-family="'AdobeSongStd-Light-GBpc-EUC-H'" font-size="11">瑞士</text>
		
			<text transform="matrix(1 0 0 1 5 16)" fill="none" stroke="#FFFFFF" stroke-width="2" stroke-linejoin="round" font-family="'AdobeSongStd-Light-GBpc-EUC-H'" font-size="11">瑞士</text>
		<text transform="matrix(1 0 0 1 5 16)" font-family="'AdobeSongStd-Light-GBpc-EUC-H'" font-size="11">瑞士</text>
	</g>
	<g transform="translate(156,3)">
		<text transform="matrix(1 0 0 1 5 16)" fill="#FFFFFF" font-family="'AdobeSongStd-Light-GBpc-EUC-H'" font-size="11">德国</text>
		
			<text transform="matrix(1 0 0 1 5 16)" fill="none" stroke="#FFFFFF" stroke-width="2" stroke-linejoin="round" font-family="'AdobeSongStd-Light-GBpc-EUC-H'" font-size="11">德国</text>
		<text transform="matrix(1 0 0 1 5 16)" font-family="'AdobeSongStd-Light-GBpc-EUC-H'" font-size="11">德国</text>
	</g>
</g>
<g>
	<rect display="none" fill="none" width="8" height="8"/>
</g>
</svg>
