<?xml version="1.0" encoding="utf-8"?>
<!-- Generator: Adobe Illustrator 16.0.0, SVG Export Plug-In . SVG Version: 6.00 Build 0)  -->
<!DOCTYPE svg PUBLIC "-//W3C//DTD SVG 1.1//EN" "http://www.w3.org/Graphics/SVG/1.1/DTD/svg11.dtd">
<svg version="1.1" id="图层_1" xmlns="http://www.w3.org/2000/svg" xmlns:xlink="http://www.w3.org/1999/xlink" x="0px" y="0px"
	 width="723.467px" height="276.551px" viewBox="0 0 723.467 276.551" enable-background="new 0 0 723.467 276.551"
	 xml:space="preserve">
<rect x="-11.766" y="-11.225" fill="#FFFFFF" width="756" height="304"/>
<line fill="none" stroke="#353535" stroke-miterlimit="10" x1="27.896" y1="209.328" x2="711.896" y2="209.328"/>
<line fill="none" stroke="#353535" stroke-miterlimit="10" x1="27.396" y1="209.828" x2="27.396" y2="29.828"/>
<g display="none" opacity="0.2">
	<rect x="27.896" y="178.828" display="inline" fill="#A8A8A8" width="676" height="31"/>
	<rect x="27.896" y="147.828" display="inline" fill="#E5E5E5" width="676" height="31"/>
	<rect x="27.896" y="116.828" display="inline" fill="#A8A8A8" width="676" height="31"/>
	<rect x="27.896" y="85.828" display="inline" fill="#E5E5E5" width="676" height="31"/>
	<rect x="27.896" y="54.828" display="inline" fill="#A8A8A8" width="676" height="31"/>
	<rect x="27.896" y="23.828" display="inline" fill="#E5E5E5" width="676" height="31"/>
</g>
<text transform="matrix(1 0 0 1 12.1829 210.1621)" fill="#353535" font-family="'MicrosoftYaHei'" font-size="12">0</text>
<text transform="matrix(1 0 0 1 43.1829 227.709)" fill="#353535" font-family="'MicrosoftYaHei'" font-size="10.215">1 </text>
<text transform="matrix(1 0 0 1 12.1829 181.4961)" fill="#353535" font-family="'MicrosoftYaHei'" font-size="12">5</text>
<text transform="matrix(1 0 0 1 6.6384 148.8301)" fill="#353535" font-family="'MicrosoftYaHei'" font-size="12">10</text>
<text transform="matrix(1 0 0 1 6.6384 120.1621)" fill="#353535" font-family="'MicrosoftYaHei'" font-size="12">15</text>
<text transform="matrix(1 0 0 1 6.6384 85.8281)" fill="#353535" font-family="'MicrosoftYaHei'" font-size="12">20</text>
<text transform="matrix(1 0 0 1 6.6384 56.4961)" fill="#353535" font-family="'MicrosoftYaHei'" font-size="12">25</text>
<circle fill="none" stroke="#C23531" stroke-miterlimit="10" cx="192.23" cy="257.161" r="6.202"/>
<line fill="none" stroke="#C23531" stroke-miterlimit="10" x1="185.896" y1="257.328" x2="173.896" y2="257.328"/>
<line fill="none" stroke="#C23531" stroke-miterlimit="10" x1="209.896" y1="257.328" x2="197.896" y2="257.328"/>
<circle fill="none" stroke="#5691B2" stroke-miterlimit="10" cx="289.23" cy="257.161" r="6.202"/>
<line fill="none" stroke="#5691B2" stroke-miterlimit="10" x1="282.896" y1="257.328" x2="270.896" y2="257.328"/>
<line fill="none" stroke="#5691B2" stroke-miterlimit="10" x1="306.896" y1="257.328" x2="294.896" y2="257.328"/>
<circle fill="none" stroke="#409B58" stroke-miterlimit="10" cx="388.229" cy="257.161" r="6.202"/>
<line fill="none" stroke="#409B58" stroke-miterlimit="10" x1="381.896" y1="257.328" x2="369.896" y2="257.328"/>
<line fill="none" stroke="#409B58" stroke-miterlimit="10" x1="405.896" y1="257.328" x2="393.896" y2="257.328"/>
<circle fill="none" stroke="#D968ED" stroke-miterlimit="10" cx="488.229" cy="257.161" r="6.202"/>
<line fill="none" stroke="#D968ED" stroke-miterlimit="10" x1="481.896" y1="257.328" x2="469.896" y2="257.328"/>
<line fill="none" stroke="#D968ED" stroke-miterlimit="10" x1="505.896" y1="257.328" x2="493.896" y2="257.328"/>
<text transform="matrix(1 0 0 1 211.3958 261.3652)" fill="#353535" font-family="'MicrosoftYaHei'" font-size="12">砂石</text>
<text transform="matrix(1 0 0 1 309.3958 261.3652)" fill="#353535" font-family="'MicrosoftYaHei'" font-size="12">沥青</text>
<text transform="matrix(1 0 0 1 408.3967 261.3652)" fill="#353535" font-family="'MicrosoftYaHei'" font-size="12">水泥</text>
<text transform="matrix(1 0 0 1 509.3967 261.3652)" fill="#353535" font-family="'MicrosoftYaHei'" font-size="12">粉料</text>
<line fill="none" stroke="#C23531" stroke-miterlimit="10" x1="27.896" y1="205.518" x2="46.207" y2="183.495"/>
<line fill="none" stroke="#C23531" stroke-miterlimit="10" x1="46.207" y1="183.495" x2="69.655" y2="202.068"/>
<line fill="none" stroke="#C23531" stroke-miterlimit="10" x1="69.655" y1="202.068" x2="91.724" y2="176.551"/>
<line fill="none" stroke="#C23531" stroke-miterlimit="10" x1="91.724" y1="176.551" x2="118.621" y2="183.495"/>
<line fill="none" stroke="#C23531" stroke-miterlimit="10" x1="118.621" y1="183.495" x2="142.758" y2="180.023"/>
<line fill="none" stroke="#C23531" stroke-miterlimit="10" x1="142.758" y1="180.023" x2="166.207" y2="162.758"/>
<line fill="none" stroke="#C23531" stroke-miterlimit="10" x1="166.207" y1="162.758" x2="198.432" y2="171.391"/>
<line fill="none" stroke="#C23531" stroke-miterlimit="10" x1="198.432" y1="171.391" x2="219.31" y2="180.023"/>
<line fill="none" stroke="#C23531" stroke-miterlimit="10" x1="219.31" y1="180.023" x2="246.896" y2="167.074"/>
<line fill="none" stroke="#C23531" stroke-miterlimit="10" x1="246.896" y1="167.074" x2="273.793" y2="181.759"/>
<line fill="none" stroke="#C23531" stroke-miterlimit="10" x1="273.793" y1="181.759" x2="300.896" y2="162.758"/>
<line fill="none" stroke="#C23531" stroke-miterlimit="10" x1="300.896" y1="162.758" x2="338.621" y2="189.311"/>
<line fill="none" stroke="#C23531" stroke-miterlimit="10" x1="338.621" y1="189.311" x2="366.896" y2="167.074"/>
<line fill="none" stroke="#C23531" stroke-miterlimit="10" x1="366.896" y1="167.074" x2="399.896" y2="180.023"/>
<line fill="none" stroke="#C23531" stroke-miterlimit="10" x1="399.896" y1="180.023" x2="426.896" y2="173.548"/>
<line fill="none" stroke="#C23531" stroke-miterlimit="10" x1="426.896" y1="173.548" x2="459.311" y2="157.242"/>
<line fill="none" stroke="#C23531" stroke-miterlimit="10" x1="459.311" y1="157.242" x2="493.896" y2="174.417"/>
<line fill="none" stroke="#C23531" stroke-miterlimit="10" x1="493.896" y1="174.417" x2="518.618" y2="167.074"/>
<line fill="none" stroke="#C23531" stroke-miterlimit="10" x1="518.618" y1="167.074" x2="552.412" y2="174.417"/>
<line fill="none" stroke="#C23531" stroke-miterlimit="10" x1="552.412" y1="174.417" x2="582.068" y2="167.074"/>
<line fill="none" stroke="#C23531" stroke-miterlimit="10" x1="582.068" y1="167.074" x2="613.795" y2="181.759"/>
<line fill="none" stroke="#C23531" stroke-miterlimit="10" x1="613.795" y1="181.759" x2="636.552" y2="173.548"/>
<line fill="none" stroke="#C23531" stroke-miterlimit="10" x1="636.552" y1="173.548" x2="666.896" y2="180.023"/>
<line fill="none" stroke="#C23531" stroke-miterlimit="10" x1="666.896" y1="180.023" x2="696.552" y2="172.259"/>
<circle fill="#FFFFFF" stroke="#C23531" stroke-miterlimit="10" cx="45.919" cy="183.287" r="1.736"/>
<circle fill="#FFFFFF" stroke="#C23531" stroke-miterlimit="10" cx="68.919" cy="200.287" r="1.736"/>
<circle fill="#FFFFFF" stroke="#C23531" stroke-miterlimit="10" cx="91.919" cy="176.287" r="1.736"/>
<circle fill="#FFFFFF" stroke="#C23531" stroke-miterlimit="10" cx="118.919" cy="184.287" r="1.736"/>
<circle fill="#FFFFFF" stroke="#C23531" stroke-miterlimit="10" cx="142.919" cy="180.287" r="1.736"/>
<circle fill="#FFFFFF" stroke="#C23531" stroke-miterlimit="10" cx="165.919" cy="163.287" r="1.736"/>
<circle fill="#FFFFFF" stroke="#C23531" stroke-miterlimit="10" cx="196.919" cy="170.287" r="1.736"/>
<circle fill="#FFFFFF" stroke="#C23531" stroke-miterlimit="10" cx="218.919" cy="179.287" r="1.736"/>
<circle fill="#FFFFFF" stroke="#C23531" stroke-miterlimit="10" cx="246.919" cy="167.287" r="1.736"/>
<circle fill="#FFFFFF" stroke="#C23531" stroke-miterlimit="10" cx="273.919" cy="181.287" r="1.736"/>
<circle fill="#FFFFFF" stroke="#C23531" stroke-miterlimit="10" cx="300.919" cy="162.287" r="1.736"/>
<circle fill="#FFFFFF" stroke="#C23531" stroke-miterlimit="10" cx="337.919" cy="188.287" r="1.736"/>
<circle fill="#FFFFFF" stroke="#C23531" stroke-miterlimit="10" cx="366.919" cy="166.287" r="1.734"/>
<circle fill="#FFFFFF" stroke="#C23531" stroke-miterlimit="10" cx="399.919" cy="179.287" r="1.734"/>
<circle fill="#FFFFFF" stroke="#C23531" stroke-miterlimit="10" cx="426.921" cy="173.287" r="1.734"/>
<circle fill="#FFFFFF" stroke="#C23531" stroke-miterlimit="10" cx="459.921" cy="157.287" r="1.734"/>
<circle fill="#FFFFFF" stroke="#C23531" stroke-miterlimit="10" cx="492.921" cy="174.287" r="1.734"/>
<circle fill="#FFFFFF" stroke="#C23531" stroke-miterlimit="10" cx="517.921" cy="167.287" r="1.734"/>
<circle fill="#FFFFFF" stroke="#C23531" stroke-miterlimit="10" cx="551.921" cy="174.287" r="1.734"/>
<circle fill="#FFFFFF" stroke="#C23531" stroke-miterlimit="10" cx="581.921" cy="167.287" r="1.734"/>
<circle fill="#FFFFFF" stroke="#C23531" stroke-miterlimit="10" cx="613.921" cy="181.287" r="1.734"/>
<circle fill="#FFFFFF" stroke="#C23531" stroke-miterlimit="10" cx="636.921" cy="174.287" r="1.734"/>
<circle fill="#FFFFFF" stroke="#C23531" stroke-miterlimit="10" cx="665.921" cy="179.287" r="1.734"/>
<circle fill="#FFFFFF" stroke="#C23531" stroke-miterlimit="10" cx="695.921" cy="172.287" r="1.734"/>
<line fill="none" stroke="#5691B2" stroke-miterlimit="10" x1="27.396" y1="170.287" x2="44.183" y2="162.287"/>
<line fill="none" stroke="#5691B2" stroke-miterlimit="10" x1="44.183" y1="162.287" x2="67.183" y2="179.287"/>
<line fill="none" stroke="#5691B2" stroke-miterlimit="10" x1="67.183" y1="179.287" x2="90.183" y2="160.551"/>
<line fill="none" stroke="#5691B2" stroke-miterlimit="10" x1="90.183" y1="160.551" x2="120.655" y2="198.551"/>
<line fill="none" stroke="#5691B2" stroke-miterlimit="10" x1="120.655" y1="198.551" x2="141.183" y2="172.023"/>
<line fill="none" stroke="#5691B2" stroke-miterlimit="10" x1="141.183" y1="172.023" x2="170.396" y2="186.023"/>
<line fill="none" stroke="#5691B2" stroke-miterlimit="10" x1="170.396" y1="186.023" x2="196.919" y2="165.395"/>
<line fill="none" stroke="#5691B2" stroke-miterlimit="10" x1="196.919" y1="165.395" x2="219.31" y2="189.311"/>
<line fill="none" stroke="#5691B2" stroke-miterlimit="10" x1="219.31" y1="189.311" x2="245.183" y2="157.242"/>
<line fill="none" stroke="#5691B2" stroke-miterlimit="10" x1="245.183" y1="157.242" x2="272.183" y2="174.023"/>
<line fill="none" stroke="#5691B2" stroke-miterlimit="10" x1="272.183" y1="174.023" x2="299.183" y2="147.328"/>
<line fill="none" stroke="#5691B2" stroke-miterlimit="10" x1="299.183" y1="147.328" x2="337.919" y2="137.828"/>
<line fill="none" stroke="#5691B2" stroke-miterlimit="10" x1="337.919" y1="137.828" x2="361.896" y2="129.328"/>
<line fill="none" stroke="#5691B2" stroke-miterlimit="10" x1="361.896" y1="129.328" x2="388.229" y2="133.578"/>
<line fill="none" stroke="#5691B2" stroke-miterlimit="10" x1="388.229" y1="133.578" x2="421.396" y2="147.328"/>
<line fill="none" stroke="#5691B2" stroke-miterlimit="10" x1="421.396" y1="147.328" x2="454.396" y2="137.828"/>
<line fill="none" stroke="#5691B2" stroke-miterlimit="10" x1="454.396" y1="137.828" x2="492.921" y2="182.551"/>
<line fill="none" stroke="#5691B2" stroke-miterlimit="10" x1="492.921" y1="182.551" x2="518.618" y2="155.551"/>
<line fill="none" stroke="#5691B2" stroke-miterlimit="10" x1="518.618" y1="155.551" x2="552.412" y2="183.495"/>
<line fill="none" stroke="#5691B2" stroke-miterlimit="10" x1="552.412" y1="183.495" x2="580.184" y2="160.189"/>
<line fill="none" stroke="#5691B2" stroke-miterlimit="10" x1="580.184" y1="160.189" x2="613.795" y2="142.578"/>
<line fill="none" stroke="#5691B2" stroke-miterlimit="10" x1="613.795" y1="142.578" x2="635.184" y2="157.287"/>
<line fill="none" stroke="#5691B2" stroke-miterlimit="10" x1="635.184" y1="157.287" x2="664.184" y2="150.829"/>
<line fill="none" stroke="#5691B2" stroke-miterlimit="10" x1="664.184" y1="150.829" x2="697.654" y2="182.551"/>
<circle fill="#FFFFFF" stroke="#5691B2" stroke-miterlimit="10" cx="43.919" cy="162.287" r="1.736"/>
<circle fill="#FFFFFF" stroke="#5691B2" stroke-miterlimit="10" cx="66.919" cy="179.287" r="1.736"/>
<circle fill="#FFFFFF" stroke="#5691B2" stroke-miterlimit="10" cx="89.919" cy="160.287" r="1.736"/>
<circle fill="#FFFFFF" stroke="#5691B2" stroke-miterlimit="10" cx="120.919" cy="198.287" r="1.736"/>
<circle fill="#FFFFFF" stroke="#5691B2" stroke-miterlimit="10" cx="140.919" cy="170.287" r="1.736"/>
<circle fill="#FFFFFF" stroke="#5691B2" stroke-miterlimit="10" cx="169.919" cy="184.287" r="1.736"/>
<circle fill="#FFFFFF" stroke="#5691B2" stroke-miterlimit="10" cx="197.919" cy="165.287" r="1.736"/>
<circle fill="#FFFFFF" stroke="#5691B2" stroke-miterlimit="10" cx="220.919" cy="189.287" r="1.736"/>
<circle fill="#FFFFFF" stroke="#5691B2" stroke-miterlimit="10" cx="244.919" cy="155.287" r="1.736"/>
<circle fill="#FFFFFF" stroke="#5691B2" stroke-miterlimit="10" cx="272.919" cy="173.287" r="1.736"/>
<circle fill="#FFFFFF" stroke="#5691B2" stroke-miterlimit="10" cx="298.919" cy="147.287" r="1.736"/>
<circle fill="#FFFFFF" stroke="#5691B2" stroke-miterlimit="10" cx="334.919" cy="138.287" r="1.736"/>
<circle fill="#FFFFFF" stroke="#5691B2" stroke-miterlimit="10" cx="359.919" cy="129.287" r="1.736"/>
<circle fill="#FFFFFF" stroke="#5691B2" stroke-miterlimit="10" cx="387.919" cy="133.287" r="1.735"/>
<circle fill="#FFFFFF" stroke="#5691B2" stroke-miterlimit="10" cx="420.919" cy="147.287" r="1.734"/>
<circle fill="#FFFFFF" stroke="#5691B2" stroke-miterlimit="10" cx="453.921" cy="138.287" r="1.735"/>
<circle fill="#FFFFFF" stroke="#5691B2" stroke-miterlimit="10" cx="490.921" cy="182.287" r="1.734"/>
<circle fill="#FFFFFF" stroke="#5691B2" stroke-miterlimit="10" cx="517.921" cy="155.287" r="1.734"/>
<circle fill="#FFFFFF" stroke="#5691B2" stroke-miterlimit="10" cx="551.921" cy="183.287" r="1.734"/>
<circle fill="#FFFFFF" stroke="#5691B2" stroke-miterlimit="10" cx="579.921" cy="160.287" r="1.734"/>
<circle fill="#FFFFFF" stroke="#5691B2" stroke-miterlimit="10" cx="613.921" cy="142.287" r="1.734"/>
<circle fill="#FFFFFF" stroke="#5691B2" stroke-miterlimit="10" cx="634.921" cy="157.287" r="1.734"/>
<circle fill="#FFFFFF" stroke="#5691B2" stroke-miterlimit="10" cx="662.921" cy="151.287" r="1.734"/>
<circle fill="#FFFFFF" stroke="#5691B2" stroke-miterlimit="10" cx="695.921" cy="182.287" r="1.734"/>
<g>
	<circle fill="#FFFFFF" stroke="#409B58" stroke-miterlimit="10" cx="42.919" cy="77.287" r="1.736"/>
	<circle fill="#FFFFFF" stroke="#409B58" stroke-miterlimit="10" cx="62.919" cy="86.287" r="1.736"/>
	<circle fill="#FFFFFF" stroke="#409B58" stroke-miterlimit="10" cx="83.919" cy="68.287" r="1.736"/>
	<circle fill="#FFFFFF" stroke="#409B58" stroke-miterlimit="10" cx="104.919" cy="90.287" r="1.736"/>
	<circle fill="#FFFFFF" stroke="#409B58" stroke-miterlimit="10" cx="124.919" cy="72.287" r="1.736"/>
	<circle fill="#FFFFFF" stroke="#409B58" stroke-miterlimit="10" cx="134.919" cy="90.287" r="1.736"/>
	<circle fill="#FFFFFF" stroke="#409B58" stroke-miterlimit="10" cx="160.919" cy="113.287" r="1.736"/>
	<circle fill="#FFFFFF" stroke="#409B58" stroke-miterlimit="10" cx="191.919" cy="72.287" r="1.736"/>
	<circle fill="#FFFFFF" stroke="#409B58" stroke-miterlimit="10" cx="220.919" cy="93.287" r="1.736"/>
	<circle fill="#FFFFFF" stroke="#409B58" stroke-miterlimit="10" cx="242.919" cy="77.287" r="1.736"/>
	<circle fill="#FFFFFF" stroke="#409B58" stroke-miterlimit="10" cx="306.919" cy="130.287" r="1.736"/>
	<circle fill="#FFFFFF" stroke="#409B58" stroke-miterlimit="10" cx="339.919" cy="82.287" r="1.736"/>
	<circle fill="#FFFFFF" stroke="#409B58" stroke-miterlimit="10" cx="369.919" cy="108.287" r="1.735"/>
	<circle fill="#FFFFFF" stroke="#409B58" stroke-miterlimit="10" cx="404.919" cy="77.287" r="1.735"/>
	<circle fill="#FFFFFF" stroke="#409B58" stroke-miterlimit="10" cx="428.921" cy="105.287" r="1.735"/>
	<circle fill="#FFFFFF" stroke="#409B58" stroke-miterlimit="10" cx="455.921" cy="70.287" r="1.735"/>
	<circle fill="#FFFFFF" stroke="#409B58" stroke-miterlimit="10" cx="487.921" cy="97.287" r="1.735"/>
	<circle fill="#FFFFFF" stroke="#409B58" stroke-miterlimit="10" cx="519.921" cy="65.287" r="1.735"/>
	<circle fill="#FFFFFF" stroke="#409B58" stroke-miterlimit="10" cx="549.921" cy="99.287" r="1.735"/>
	<circle fill="#FFFFFF" stroke="#409B58" stroke-miterlimit="10" cx="579.921" cy="60.287" r="1.735"/>
	<circle fill="#FFFFFF" stroke="#409B58" stroke-miterlimit="10" cx="611.921" cy="77.287" r="1.735"/>
	<circle fill="#FFFFFF" stroke="#409B58" stroke-miterlimit="10" cx="634.921" cy="97.287" r="1.735"/>
	<circle fill="#FFFFFF" stroke="#409B58" stroke-miterlimit="10" cx="660.921" cy="82.287" r="1.735"/>
	<circle fill="#FFFFFF" stroke="#409B58" stroke-miterlimit="10" cx="693.921" cy="93.287" r="1.735"/>
	<line fill="none" stroke="#409B58" stroke-miterlimit="10" x1="27.396" y1="86.328" x2="43.183" y2="76.828"/>
	<line fill="none" stroke="#409B58" stroke-miterlimit="10" x1="43.183" y1="76.828" x2="62.896" y2="86.328"/>
	<line fill="none" stroke="#409B58" stroke-miterlimit="10" x1="62.896" y1="86.328" x2="83.896" y2="68.468"/>
	<line fill="none" stroke="#409B58" stroke-miterlimit="10" x1="83.896" y1="68.468" x2="105.172" y2="89.828"/>
	<line fill="none" stroke="#409B58" stroke-miterlimit="10" x1="105.172" y1="89.828" x2="125.396" y2="72.328"/>
	<line fill="none" stroke="#409B58" stroke-miterlimit="10" x1="125.396" y1="72.328" x2="135.396" y2="89.828"/>
	<line fill="none" stroke="#409B58" stroke-miterlimit="10" x1="135.396" y1="89.828" x2="160.896" y2="114.023"/>
	<line fill="none" stroke="#409B58" stroke-miterlimit="10" x1="160.896" y1="114.023" x2="192.229" y2="72.328"/>
	<line fill="none" stroke="#409B58" stroke-miterlimit="10" x1="192.229" y1="72.328" x2="220.919" y2="93.175"/>
	<line fill="none" stroke="#409B58" stroke-miterlimit="10" x1="220.919" y1="93.175" x2="243.183" y2="76.828"/>
	<line fill="none" stroke="#409B58" stroke-miterlimit="10" x1="243.183" y1="76.828" x2="272.919" y2="103.287"/>
	<line fill="none" stroke="#409B58" stroke-miterlimit="10" x1="272.919" y1="103.287" x2="306.896" y2="130.675"/>
	<line fill="none" stroke="#409B58" stroke-miterlimit="10" x1="306.896" y1="130.675" x2="339.655" y2="82.751"/>
	<line fill="none" stroke="#409B58" stroke-miterlimit="10" x1="339.655" y1="82.751" x2="369.896" y2="108.287"/>
	<line fill="none" stroke="#409B58" stroke-miterlimit="10" x1="369.896" y1="108.287" x2="404.813" y2="76.828"/>
	<line fill="none" stroke="#409B58" stroke-miterlimit="10" x1="404.813" y1="76.828" x2="428.654" y2="105.023"/>
	<line fill="none" stroke="#409B58" stroke-miterlimit="10" x1="428.654" y1="105.023" x2="455.654" y2="68.468"/>
	<line fill="none" stroke="#409B58" stroke-miterlimit="10" x1="455.654" y1="68.468" x2="488.229" y2="97.551"/>
	<line fill="none" stroke="#409B58" stroke-miterlimit="10" x1="488.229" y1="97.551" x2="519.654" y2="65.328"/>
	<line fill="none" stroke="#409B58" stroke-miterlimit="10" x1="519.654" y1="65.328" x2="550.184" y2="99.328"/>
	<line fill="none" stroke="#409B58" stroke-miterlimit="10" x1="550.184" y1="99.328" x2="580.184" y2="59.828"/>
	<line fill="none" stroke="#409B58" stroke-miterlimit="10" x1="580.184" y1="59.828" x2="612.184" y2="77.398"/>
	<line fill="none" stroke="#409B58" stroke-miterlimit="10" x1="612.184" y1="77.398" x2="635.184" y2="97.551"/>
	<line fill="none" stroke="#409B58" stroke-miterlimit="10" x1="635.184" y1="97.551" x2="661.184" y2="82.751"/>
	<line fill="none" stroke="#409B58" stroke-miterlimit="10" x1="661.184" y1="82.751" x2="694.184" y2="93.175"/>
</g>
<g>
	<line fill="none" stroke="#D968ED" stroke-miterlimit="10" x1="27.396" y1="180.287" x2="47.655" y2="150.023"/>
	<line fill="none" stroke="#D968ED" stroke-miterlimit="10" x1="47.655" y1="150.023" x2="64.654" y2="141.023"/>
	<line fill="none" stroke="#D968ED" stroke-miterlimit="10" x1="64.654" y1="141.023" x2="88.183" y2="132.023"/>
	<line fill="none" stroke="#D968ED" stroke-miterlimit="10" x1="88.183" y1="132.023" x2="123.183" y2="105.287"/>
	<line fill="none" stroke="#D968ED" stroke-miterlimit="10" x1="123.183" y1="105.287" x2="144.655" y2="135.551"/>
	<line fill="none" stroke="#D968ED" stroke-miterlimit="10" x1="144.655" y1="135.551" x2="165.919" y2="139.287"/>
	<line fill="none" stroke="#D968ED" stroke-miterlimit="10" x1="165.919" y1="139.287" x2="192.229" y2="99.828"/>
	<line fill="none" stroke="#D968ED" stroke-miterlimit="10" x1="192.229" y1="99.828" x2="218.919" y2="146.551"/>
	<line fill="none" stroke="#D968ED" stroke-miterlimit="10" x1="218.919" y1="146.551" x2="242.919" y2="126.287"/>
	<line fill="none" stroke="#D968ED" stroke-miterlimit="10" x1="242.919" y1="126.287" x2="272.183" y2="157.287"/>
	<line fill="none" stroke="#D968ED" stroke-miterlimit="10" x1="272.183" y1="157.287" x2="294.896" y2="137.551"/>
	<line fill="none" stroke="#D968ED" stroke-miterlimit="10" x1="294.896" y1="137.551" x2="341.654" y2="159.023"/>
	<line fill="none" stroke="#D968ED" stroke-miterlimit="10" x1="341.654" y1="159.023" x2="366.896" y2="160.829"/>
	<line fill="none" stroke="#D968ED" stroke-miterlimit="10" x1="366.896" y1="160.829" x2="399.896" y2="141.023"/>
	<line fill="none" stroke="#D968ED" stroke-miterlimit="10" x1="399.896" y1="141.023" x2="430.654" y2="167.023"/>
	<line fill="none" stroke="#D968ED" stroke-miterlimit="10" x1="430.654" y1="167.023" x2="459.311" y2="137.287"/>
	<line fill="none" stroke="#D968ED" stroke-miterlimit="10" x1="459.311" y1="137.287" x2="481.896" y2="151.551"/>
	<line fill="none" stroke="#D968ED" stroke-miterlimit="10" x1="481.896" y1="151.551" x2="521.654" y2="145.287"/>
	<line fill="none" stroke="#D968ED" stroke-miterlimit="10" x1="521.654" y1="145.287" x2="549.921" y2="150.925"/>
	<line fill="none" stroke="#D968ED" stroke-miterlimit="10" x1="549.921" y1="150.925" x2="583.654" y2="145.287"/>
	<line fill="none" stroke="#D968ED" stroke-miterlimit="10" x1="583.654" y1="145.287" x2="615.654" y2="145.523"/>
	<line fill="none" stroke="#D968ED" stroke-miterlimit="10" x1="615.654" y1="145.523" x2="633.184" y2="150.925"/>
	<line fill="none" stroke="#D968ED" stroke-miterlimit="10" x1="633.184" y1="150.925" x2="655.229" y2="145.523"/>
	<line fill="none" stroke="#D968ED" stroke-miterlimit="10" x1="655.229" y1="145.523" x2="695.921" y2="151.551"/>
	<circle fill="#FFFFFF" stroke="#D968ED" stroke-miterlimit="10" cx="47.919" cy="150.287" r="1.736"/>
	<circle fill="#FFFFFF" stroke="#D968ED" stroke-miterlimit="10" cx="65.919" cy="141.287" r="1.736"/>
	<circle fill="#FFFFFF" stroke="#D968ED" stroke-miterlimit="10" cx="87.919" cy="131.287" r="1.736"/>
	<circle fill="#FFFFFF" stroke="#D968ED" stroke-miterlimit="10" cx="122.919" cy="105.287" r="1.736"/>
	<circle fill="#FFFFFF" stroke="#D968ED" stroke-miterlimit="10" cx="144.919" cy="135.287" r="1.736"/>
	<circle fill="#FFFFFF" stroke="#D968ED" stroke-miterlimit="10" cx="165.919" cy="137.287" r="1.736"/>
	<circle fill="#FFFFFF" stroke="#D968ED" stroke-miterlimit="10" cx="191.919" cy="100.287" r="1.736"/>
	<circle fill="#FFFFFF" stroke="#D968ED" stroke-miterlimit="10" cx="219.919" cy="145.287" r="1.736"/>
	<circle fill="#FFFFFF" stroke="#D968ED" stroke-miterlimit="10" cx="242.919" cy="126.287" r="1.736"/>
	<circle fill="#FFFFFF" stroke="#D968ED" stroke-miterlimit="10" cx="271.919" cy="157.287" r="1.736"/>
	<circle fill="#FFFFFF" stroke="#D968ED" stroke-miterlimit="10" cx="294.919" cy="137.287" r="1.736"/>
	<circle fill="#FFFFFF" stroke="#D968ED" stroke-miterlimit="10" cx="339.919" cy="157.287" r="1.736"/>
	<circle fill="#FFFFFF" stroke="#D968ED" stroke-miterlimit="10" cx="367.919" cy="160.287" r="1.734"/>
	<circle fill="#FFFFFF" stroke="#D968ED" stroke-miterlimit="10" cx="399.919" cy="141.287" r="1.734"/>
	<circle fill="#FFFFFF" stroke="#D968ED" stroke-miterlimit="10" cx="430.921" cy="167.287" r="1.734"/>
	<circle fill="#FFFFFF" stroke="#D968ED" stroke-miterlimit="10" cx="458.921" cy="137.287" r="1.734"/>
	<circle fill="#FFFFFF" stroke="#D968ED" stroke-miterlimit="10" cx="481.921" cy="151.287" r="1.734"/>
	<circle fill="#FFFFFF" stroke="#D968ED" stroke-miterlimit="10" cx="519.921" cy="145.287" r="1.734"/>
	<circle fill="#FFFFFF" stroke="#D968ED" stroke-miterlimit="10" cx="547.921" cy="150.287" r="1.734"/>
	<circle fill="#FFFFFF" stroke="#D968ED" stroke-miterlimit="10" cx="581.921" cy="145.287" r="1.734"/>
	<circle fill="#FFFFFF" stroke="#D968ED" stroke-miterlimit="10" cx="615.921" cy="145.287" r="1.734"/>
	<circle fill="#FFFFFF" stroke="#D968ED" stroke-miterlimit="10" cx="632.921" cy="151.287" r="1.734"/>
	<circle fill="#FFFFFF" stroke="#D968ED" stroke-miterlimit="10" cx="654.921" cy="145.287" r="1.734"/>
	<circle fill="#FFFFFF" stroke="#D968ED" stroke-miterlimit="10" cx="693.921" cy="152.287" r="1.734"/>
</g>
<g display="none">
	<path display="inline" opacity="0.6" fill="#0C0C0C" enable-background="new    " d="M265.896,90.73
		c0,3.644-3.174,7.098-8.109,7.098h-50.449c-4.938,0-9.438-3.454-9.438-7.098V16.253c0-3.644,4.502-6.425,9.438-6.425h50.449
		c4.938,0,8.109,2.781,8.109,6.425V90.73z"/>
	
		<text transform="matrix(1 0 0 1 207.1829 26.8965)" display="inline" fill="#FFFFFF" font-family="'MicrosoftYaHei'" font-size="12">7</text>
	
		<text transform="matrix(1 0 0 1 214.6541 44.6982)" display="inline" fill="#FFFFFF" font-family="'MicrosoftYaHei'" font-size="9">砂石：80</text>
	
		<text transform="matrix(1 0 0 1 214.6541 57.4961)" display="inline" fill="#FFFFFF" font-family="'MicrosoftYaHei'" font-size="9">沥青：210</text>
	
		<text transform="matrix(1 0 0 1 214.6541 70.2969)" display="inline" fill="#FFFFFF" font-family="'MicrosoftYaHei'" font-size="9">水泥：120</text>
	
		<text transform="matrix(1 0 0 1 214.6541 83.0957)" display="inline" fill="#FFFFFF" font-family="'MicrosoftYaHei'" font-size="9">粉料：50</text>
	<circle display="inline" fill="#C23531" cx="207.026" cy="41.181" r="3.472"/>
	<circle display="inline" fill="#5691B2" cx="207.026" cy="53.181" r="3.472"/>
	<circle display="inline" fill="#FFF065" cx="207.026" cy="66.181" r="3.472"/>
	<circle display="inline" fill="#D968ED" cx="207.026" cy="79.181" r="3.472"/>
</g>
<text transform="matrix(1 0 0 1 276.8958 35.8281)" fill="#353535" font-family="'MicrosoftYaHei'" font-size="14">二工区沥青站原材料消耗图</text>
<text transform="matrix(1 0 0 1 276.8958 35.8281)" display="none" fill="none" stroke="#FFFFFF" stroke-width="0.25" stroke-miterlimit="10" enable-background="new    " font-family="'MicrosoftYaHei'" font-size="14">二工区沥青站原材料消耗图</text>
<text transform="matrix(1 0 0 1 71.5955 227.709)" fill="#353535" font-family="'MicrosoftYaHei'" font-size="10.215"> 2</text>
<text transform="matrix(1 0 0 1 100.0076 227.709)" fill="#353535" font-family="'MicrosoftYaHei'" font-size="10.215">3 </text>
<text transform="matrix(1 0 0 1 129.9294 227.709)" fill="#353535" font-family="'MicrosoftYaHei'" font-size="10.215">4</text>
<text transform="matrix(1 0 0 1 158.3416 227.709)" fill="#353535" font-family="'MicrosoftYaHei'" font-size="10.215">5</text>
<text transform="matrix(1 0 0 1 185.2429 227.709)" fill="#353535" font-family="'MicrosoftYaHei'" font-size="10.215">6 </text>
<text transform="matrix(1 0 0 1 215.1663 227.709)" fill="#353535" font-family="'MicrosoftYaHei'" font-size="10.215">7</text>
<text transform="matrix(1 0 0 1 242.0671 227.709)" fill="#353535" font-family="'MicrosoftYaHei'" font-size="10.215">8 </text>
<text transform="matrix(1 0 0 1 271.991 227.709)" fill="#353535" font-family="'MicrosoftYaHei'" font-size="10.215">9</text>
<text transform="matrix(1 0 0 1 295.8958 227.709)" fill="#353535" font-family="'MicrosoftYaHei'" font-size="10.215">10 </text>
<text transform="matrix(1 0 0 1 324.3079 227.709)" fill="#353535" font-family="'MicrosoftYaHei'" font-size="10.215"> 11</text>
<text transform="matrix(1 0 0 1 352.7205 227.709)" fill="#353535" font-family="'MicrosoftYaHei'" font-size="10.215">12 </text>
<text transform="matrix(1 0 0 1 381.1321 227.709)" fill="#353535" font-family="'MicrosoftYaHei'" font-size="10.215">13 </text>
<text transform="matrix(1 0 0 1 411.0549 227.709)" fill="#353535" font-family="'MicrosoftYaHei'" font-size="10.215">14</text>
<text transform="matrix(1 0 0 1 437.9563 227.709)" fill="#353535" font-family="'MicrosoftYaHei'" font-size="10.215">15 </text>
<text transform="matrix(1 0 0 1 467.8792 227.709)" fill="#353535" font-family="'MicrosoftYaHei'" font-size="10.215">16</text>
<text transform="matrix(1 0 0 1 496.2913 227.709)" fill="#353535" font-family="'MicrosoftYaHei'" font-size="10.215">17</text>
<text transform="matrix(1 0 0 1 524.7043 227.709)" fill="#353535" font-family="'MicrosoftYaHei'" font-size="10.215">18</text>
<text transform="matrix(1 0 0 1 553.1165 227.709)" fill="#353535" font-family="'MicrosoftYaHei'" font-size="10.215">19</text>
<text transform="matrix(1 0 0 1 580.0168 227.709)" fill="#353535" font-family="'MicrosoftYaHei'" font-size="10.215">20 </text>
<text transform="matrix(1 0 0 1 609.9397 227.709)" fill="#353535" font-family="'MicrosoftYaHei'" font-size="10.215">21</text>
<text transform="matrix(1 0 0 1 638.3528 227.709)" fill="#353535" font-family="'MicrosoftYaHei'" font-size="10.215">22</text>
<text transform="matrix(1 0 0 1 666.7639 227.709)" fill="#353535" font-family="'MicrosoftYaHei'" font-size="10.215">23</text>
<text transform="matrix(1 0 0 1 695.176 227.709)" fill="#353535" font-family="'MicrosoftYaHei'" font-size="10.215">24</text>
</svg>
