<?xml version="1.0" encoding="utf-8"?>
<!-- Generator: Adobe Illustrator 16.0.0, SVG Export Plug-In . SVG Version: 6.00 Build 0)  -->
<!DOCTYPE svg PUBLIC "-//W3C//DTD SVG 1.1//EN" "http://www.w3.org/Graphics/SVG/1.1/DTD/svg11.dtd">
<svg version="1.1" id="图层_1" xmlns="http://www.w3.org/2000/svg" xmlns:xlink="http://www.w3.org/1999/xlink" x="0px" y="0px"
	 width="600px" height="400px" viewBox="0 0 600 400" enable-background="new 0 0 600 400" xml:space="preserve">
<desc>Created with Highcharts 6.1.0</desc>
<rect fill="none" width="600" height="400"/>
<rect x="61" y="59" fill="none" width="529" height="276"/>
<g>
	<path fill="none" d="M148.5,59v276"/>
	<path fill="none" d="M236.5,59v276"/>
	<path fill="none" d="M325.5,59v276"/>
	<path fill="none" d="M413.5,59v276"/>
	<path fill="none" d="M501.5,59v276"/>
	<path fill="none" d="M589.5,59v276"/>
	<path fill="none" d="M60.5,59v276"/>
</g>
<g>
	<path fill="none" stroke="#E6E6E6" d="M61,335.5h529"/>
	<path fill="none" stroke="#E6E6E6" d="M61,289.5h529"/>
	<path fill="none" stroke="#E6E6E6" d="M61,243.5h529"/>
	<path fill="none" stroke="#E6E6E6" d="M61,197.5h529"/>
	<path fill="none" stroke="#E6E6E6" d="M61,151.5h529"/>
	<path fill="none" stroke="#E6E6E6" d="M61,105.5h529"/>
	<path fill="none" stroke="#E6E6E6" d="M61,58.5h529"/>
</g>
<rect x="61" y="59" fill="none" width="529" height="276"/>
<g>
	<path fill="none" stroke="#CCD6EB" d="M148.5,335v10"/>
	<path fill="none" stroke="#CCD6EB" d="M236.5,335v10"/>
	<path fill="none" stroke="#CCD6EB" d="M325.5,335v10"/>
	<path fill="none" stroke="#CCD6EB" d="M413.5,335v10"/>
	<path fill="none" stroke="#CCD6EB" d="M501.5,335v10"/>
	<path fill="none" stroke="#CCD6EB" d="M590.5,335v10"/>
	<path fill="none" stroke="#CCD6EB" d="M60.5,335v10"/>
	<path fill="none" stroke="#CCD6EB" d="M61,335.5h529"/>
</g>
<g>
	
		<text transform="matrix(-1.836970e-016 -1 1 -1.836970e-016 24 225.002)" fill="#666666" font-family="'AdobeSongStd-Light-GBpc-EUC-H'" font-size="12">总的市场份额</text>
	<path fill="none" d="M61,59v276"/>
</g>
<g>
	<g>
		<defs>
			<rect id="SVGID_1_" x="61" y="59" width="529" height="276"/>
		</defs>
		<clipPath id="SVGID_2_">
			<use xlink:href="#SVGID_1_"  overflow="visible"/>
		</clipPath>
		<g transform="translate(61,59) scale(1 1)" clip-path="url(#SVGID_2_)">
			<rect x="24" y="19" fill="none" stroke="#000000" stroke-width="5" stroke-opacity="0.05" width="43" height="259"/>
			<rect x="24" y="19" fill="none" stroke="#000000" stroke-width="3" stroke-opacity="0.1" width="43" height="259"/>
			<rect x="24" y="19" fill="none" stroke="#000000" stroke-opacity="0.15" width="43" height="259"/>
			<rect x="23" y="18" fill="#F45B5B" width="43" height="259"/>
			<rect x="112" y="167" fill="none" stroke="#000000" stroke-width="5" stroke-opacity="0.05" width="43" height="111"/>
			<rect x="112" y="167" fill="none" stroke="#000000" stroke-width="3" stroke-opacity="0.1" width="43" height="111"/>
			<rect x="112" y="167" fill="none" stroke="#000000" stroke-opacity="0.15" width="43" height="111"/>
			<rect x="111" y="166" fill="#8085E9" width="43" height="111"/>
			<rect x="200" y="230" fill="none" stroke="#000000" stroke-width="5" stroke-opacity="0.05" width="43" height="48"/>
			<rect x="200" y="230" fill="none" stroke="#000000" stroke-width="3" stroke-opacity="0.1" width="43" height="48"/>
			<rect x="200" y="230" fill="none" stroke="#000000" stroke-opacity="0.15" width="43" height="48"/>
			<rect x="199" y="229" fill="#8D4654" width="43" height="48"/>
			<rect x="288" y="256" fill="none" stroke="#000000" stroke-width="5" stroke-opacity="0.05" width="43" height="22"/>
			<rect x="288" y="256" fill="none" stroke="#000000" stroke-width="3" stroke-opacity="0.1" width="43" height="22"/>
			<rect x="288" y="147.25" fill="none" stroke="#000000" stroke-opacity="0.15" width="43" height="130.75"/>
			<rect x="287" y="148.5" fill="#7798BF" width="43" height="128.5"/>
			<rect x="377" y="274" fill="none" stroke="#000000" stroke-width="5" stroke-opacity="0.05" width="43" height="4"/>
			<rect x="377" y="274" fill="none" stroke="#000000" stroke-width="3" stroke-opacity="0.1" width="43" height="4"/>
			<rect x="377" y="262.75" fill="none" stroke="#000000" stroke-opacity="0.15" width="43" height="15.25"/>
			<rect x="376" y="263.75" fill="#AAEEEE" width="43" height="12.75"/>
			<rect x="465" y="277" fill="none" stroke="#000000" stroke-width="5" stroke-opacity="0.05" width="43" height="1"/>
			<rect x="465" y="277" fill="none" stroke="#000000" stroke-width="3" stroke-opacity="0.1" width="43" height="1"/>
			<rect x="465" y="277" fill="none" stroke="#000000" stroke-opacity="0.15" width="43" height="1"/>
			<rect x="464" y="271.813" fill="#FF0066" width="43" height="3.375"/>
		</g>
	</g>
	<g transform="translate(61,59) scale(1 1)">
	</g>
</g>
<text transform="matrix(1 0 0 1 200.4414 35)" font-family="'MicrosoftYaHei'" font-size="16">拌合一站沥青不合格柱状图</text>
<g transform="translate(61,59) scale(1 1)">
	<g transform="translate(23,18)">
		
			<text transform="matrix(1 0 0 1 5 16)" fill="#FFFFFF" font-family="'TimesNewRomanPS-BoldMT'" font-size="11" text-decoration=" underline">56.3%</text>
		
			<text transform="matrix(1 0 0 1 5 16)" fill="none" stroke="#FFFFFF" stroke-width="2" stroke-linejoin="round" font-family="'TimesNewRomanPS-BoldMT'" font-size="11" text-decoration=" underline">56.3%</text>
		
			<text transform="matrix(1 0 0 1 5 16)" fill="#003399" font-family="'TimesNewRomanPS-BoldMT'" font-size="11" text-decoration=" underline">56.3%</text>
	</g>
	<g transform="translate(111,141)">
		
			<text transform="matrix(1 0 0 1 5 16)" fill="#FFFFFF" font-family="'TimesNewRomanPS-BoldMT'" font-size="11" text-decoration=" underline">24.0%</text>
		
			<text transform="matrix(1 0 0 1 5 16)" fill="none" stroke="#FFFFFF" stroke-width="2" stroke-linejoin="round" font-family="'TimesNewRomanPS-BoldMT'" font-size="11" text-decoration=" underline">24.0%</text>
		
			<text transform="matrix(1 0 0 1 5 16)" fill="#003399" font-family="'TimesNewRomanPS-BoldMT'" font-size="11" text-decoration=" underline">24.0%</text>
	</g>
	<g transform="translate(199,204)">
		
			<text transform="matrix(1 0 0 1 5 16)" fill="#FFFFFF" font-family="'TimesNewRomanPS-BoldMT'" font-size="11" text-decoration=" underline">10.4%</text>
		
			<text transform="matrix(1 0 0 1 5 16)" fill="none" stroke="#FFFFFF" stroke-width="2" stroke-linejoin="round" font-family="'TimesNewRomanPS-BoldMT'" font-size="11" text-decoration=" underline">10.4%</text>
		
			<text transform="matrix(1 0 0 1 5 16)" fill="#003399" font-family="'TimesNewRomanPS-BoldMT'" font-size="11" text-decoration=" underline">10.4%</text>
	</g>
	<g transform="translate(290,230)">
		
			<text transform="matrix(1 0 0 1 8.333 -88)" fill="#FFFFFF" font-family="'TimesNewRomanPS-BoldMT'" font-size="11" text-decoration=" underline">4.8%</text>
		
			<text transform="matrix(1 0 0 1 8.333 -88)" fill="none" stroke="#FFFFFF" stroke-width="2" stroke-linejoin="round" font-family="'TimesNewRomanPS-BoldMT'" font-size="11" text-decoration=" underline">4.8%</text>
		
			<text transform="matrix(1 0 0 1 8.333 -88)" fill="#003399" font-family="'TimesNewRomanPS-BoldMT'" font-size="11" text-decoration=" underline">4.8%</text>
	</g>
	<g transform="translate(379,248)">
		
			<text transform="matrix(1 0 0 1 5 9)" fill="#FFFFFF" font-family="'TimesNewRomanPS-BoldMT'" font-size="11" text-decoration=" underline">0.9%</text>
		
			<text transform="matrix(1 0 0 1 5 9)" fill="none" stroke="#FFFFFF" stroke-width="2" stroke-linejoin="round" font-family="'TimesNewRomanPS-BoldMT'" font-size="11" text-decoration=" underline">0.9%</text>
		
			<text transform="matrix(1 0 0 1 5 9)" fill="#003399" font-family="'TimesNewRomanPS-BoldMT'" font-size="11" text-decoration=" underline">0.9%</text>
	</g>
	<g transform="translate(467,251)">
		<text transform="matrix(1 0 0 1 5 14)" fill="#FFFFFF" font-family="'TimesNewRomanPS-BoldMT'" font-size="11">0.2%</text>
		
			<text transform="matrix(1 0 0 1 5 14)" fill="none" stroke="#FFFFFF" stroke-width="2" stroke-linejoin="round" font-family="'TimesNewRomanPS-BoldMT'" font-size="11">0.2%</text>
		<text transform="matrix(1 0 0 1 5 14)" font-family="'TimesNewRomanPS-BoldMT'" font-size="11">0.2%</text>
	</g>
</g>
<g>
	
		<text transform="matrix(1 0 0 1 82.2778 354)" fill="#003399" font-family="'TimesNewRomanPS-BoldMT'" font-size="11" text-decoration=" underline">Microsoft</text>
	<title>Microsoft Internet Explorer</title>
	
		<text transform="matrix(1 0 0 1 174.1045 354)" fill="#003399" font-family="'TimesNewRomanPS-BoldMT'" font-size="11" text-decoration=" underline">Chrome</text>
	
		<text transform="matrix(1 0 0 1 264.4146 354)" fill="#003399" font-family="'TimesNewRomanPS-BoldMT'" font-size="11" text-decoration=" underline">Firefox</text>
	
		<text transform="matrix(1 0 0 1 355.2236 354)" fill="#003399" font-family="'TimesNewRomanPS-BoldMT'" font-size="11" text-decoration=" underline">Safari</text>
	
		<text transform="matrix(1 0 0 1 527.2236 354)" fill="#003399" font-family="'TimesNewRomanPS-BoldMT'" font-size="11" text-decoration=" underline">Safari</text>
	
		<text transform="matrix(1 0 0 1 442.7813 354)" fill="#003399" font-family="'TimesNewRomanPS-BoldMT'" font-size="11" text-decoration=" underline">Opera</text>
</g>
<g>
	<text transform="matrix(1 0 0 1 40.5 339)" fill="#6E6E70" font-family="'TimesNewRomanPSMT'" font-size="11">0</text>
	<text transform="matrix(1 0 0 1 35 293)" fill="#6E6E70" font-family="'TimesNewRomanPSMT'" font-size="11">10</text>
	<text transform="matrix(1 0 0 1 35 247)" fill="#6E6E70" font-family="'TimesNewRomanPSMT'" font-size="11">20</text>
	<text transform="matrix(1 0 0 1 35 201)" fill="#6E6E70" font-family="'TimesNewRomanPSMT'" font-size="11">30</text>
	<text transform="matrix(1 0 0 1 35 155)" fill="#6E6E70" font-family="'TimesNewRomanPSMT'" font-size="11">40</text>
	<text transform="matrix(1 0 0 1 35 109)" fill="#6E6E70" font-family="'TimesNewRomanPSMT'" font-size="11">50</text>
	<text transform="matrix(1 0 0 1 35 63)" fill="#6E6E70" font-family="'TimesNewRomanPSMT'" font-size="11">60</text>
</g>
</svg>
